# xmcd
#
# Track frame offsets:
#	150
#	15635
#	34167
#	56322
#	72827
#	89735
#	109070
#	125670
#	145790
#	158685
#
# Disc length: 2286 seconds
#
# Revision: 1
# Processed by: cddbd v1.5.2PL0 Copyright (c) Steve Scherf et al.
# Submitted via: audiograbber 1.83.01
#
DISCID=8308ec0a
DTITLE=Compilation - Singing News Fan Awards Top Ten
DYEAR=1998
DGENRE=Southern Gospel
TTITLE0=Gold City - God's Building A Church
TTITLE1=The Hoppers - Shouting Time
TTITLE2=The Kingsmen - You're Not Alone
TTITLE3=Kirk Talley - Look Up High
TTITLE4=The Bishops - Reach The World
TTITLE5=Phil Cross and Poet Voices - I Am Redeemed
TTITLE6=The Crabb Family - Please Forgive Me
TTITLE7=The Ruppes - Angels In The Room
TTITLE8=The McKameys - Right On Time
TTITLE9=The Perrys - Not Even A Stone
EXTD=
EXTT0=
EXTT1=
EXTT2=
EXTT3=
EXTT4=
EXTT5=
EXTT6=
EXTT7=
EXTT8=
EXTT9=
PLAYORDER=
